# xmcd CD database file
#
# Track frame offsets:
#	150
#	9650
#	19985
#	33251
#	49789
#	60928
#	74947
#	85937
#	97849
#	108484
#	127758
#	141440
#	153791
#	165131
#	177212
#
# Disc length: 2570 seconds
#
# Revision: 2
# Processed by: cddbd v1.4PL0 Copyright (c) Steve Scherf et al.
# Submitted via: CDex 1.51
#
DISCID=b70a080f
DTITLE=Claude Gray - The Best of Claude Gray, Vol. One
DYEAR=1900
DGENRE=Country
TTITLE0=I'll Just Have A Cup Of Coffee, Then I'll Go
TTITLE1=I Just Want To Be Alone
TTITLE2=Sweet Caroline
TTITLE3=Night Life
TTITLE4=If I Ever Need A Lady, I'll Call You
TTITLE5=A Late Cup Of Coffee
TTITLE6=Who Sent My Ex To Texas
TTITLE7=Something Special
TTITLE8=Rockin' My Memories To Sleep
TTITLE9=Whoever Finds This, I Love You
TTITLE10=I Never Had The One I Wanted
TTITLE11=We Could
TTITLE12=How Fast Them Trucks Can Go
TTITLE13=So Sad To Watch Good Love Go Bad
TTITLE14=Family Bible
EXTD=
EXTT0=
EXTT1=
EXTT2=
EXTT3=
EXTT4=
EXTT5=
EXTT6=
EXTT7=
EXTT8=
EXTT9=
EXTT10=
EXTT11=
EXTT12=
EXTT13=
EXTT14=
PLAYORDER=
